<?xml version="1.0" encoding="utf-8"?><svg viewBox="0 0 235 50" xmlns="http://www.w3.org/2000/svg" xmlns:xlink="http://www.w3.org/1999/xlink"><style>:root>svg{display:none}:root>svg:target{display:block}</style><svg viewBox="0 0 235 23" id="icon-address"><path d="M50.85 18l-.674-2.209h-3.383L46.12 18H44l3.275-9.318h2.406L52.97 18h-2.12zm-1.144-3.86c-.622-2.001-.973-3.133-1.053-3.395-.076-.263-.131-.47-.165-.622-.14.541-.54 1.88-1.2 4.018h2.419zm3.723 2.222h.717a21.864 21.864 0 001.454-3.675c.355-1.227.62-2.55.793-3.967h5.409v7.642h1.237v4.342h-1.898V18h-5.814v2.704h-1.898v-4.342zm4.526-6.005c-.136.97-.362 1.996-.68 3.079a21.642 21.642 0 01-1.06 2.926h3.625v-6.005h-1.885zm8.877 2.73h.647c.605 0 1.058-.119 1.359-.356.3-.24.45-.59.45-1.047 0-.461-.127-.802-.38-1.022-.25-.22-.644-.33-1.181-.33h-.895v2.755zm4.443-1.473c0 .999-.313 1.763-.94 2.292-.621.529-1.508.793-2.659.793h-.844V18h-1.968V8.72h2.964c1.126 0 1.98.243 2.565.73.588.482.882 1.204.882 2.164zM78.762 18h-5.345V8.72h5.345v1.612h-3.377v2.038h3.142v1.612h-3.142v2.393h3.377V18zm6.274-7.776c-.74 0-1.314.28-1.72.838-.406.554-.61 1.329-.61 2.323 0 2.07.777 3.104 2.33 3.104.652 0 1.441-.163 2.368-.489v1.65c-.762.318-1.613.477-2.552.477-1.35 0-2.383-.408-3.098-1.225-.715-.821-1.072-1.998-1.072-3.53 0-.964.175-1.809.526-2.532.352-.728.855-1.284 1.511-1.67.66-.389 1.433-.584 2.317-.584.901 0 1.807.218 2.717.654l-.635 1.6a10.505 10.505 0 00-1.047-.432 3.125 3.125 0 00-1.035-.184zm8.505-1.504h1.771V13.2l-.025 1.2-.064 1.365h.038l4.285-7.046h2.355V18h-1.752v-4.456c0-.597.038-1.481.114-2.653h-.05L95.909 18H93.54V8.72zm14.859 0h2.888c1.317 0 2.271.188 2.863.565.597.372.895.967.895 1.783 0 .555-.131 1.01-.393 1.365-.258.356-.603.57-1.035.641v.064c.588.13 1.011.376 1.27.736.262.36.393.838.393 1.435 0 .846-.307 1.506-.92 1.98-.61.474-1.439.711-2.489.711H108.4V8.72zm1.968 3.675h1.143c.533 0 .918-.082 1.155-.247.241-.166.362-.438.362-.82 0-.355-.131-.609-.394-.761-.258-.157-.668-.235-1.231-.235h-1.035v2.063zm0 1.562v2.418h1.282c.542 0 .942-.104 1.2-.311.258-.207.387-.525.387-.952 0-.77-.55-1.155-1.65-1.155h-1.219zm9.124-.87h.648c.605 0 1.058-.119 1.358-.356.301-.24.451-.59.451-1.047 0-.461-.127-.802-.381-1.022-.25-.22-.643-.33-1.181-.33h-.895v2.755zm4.444-1.473c0 .999-.313 1.763-.94 2.292-.622.529-1.508.793-2.659.793h-.845V18h-1.967V8.72h2.964c1.126 0 1.98.243 2.564.73.589.482.883 1.204.883 2.164zM131.422 18h-5.344V8.72h5.344v1.612h-3.376v2.038h3.142v1.612h-3.142v2.393h3.376V18zm6.262 0l-2.234-7.28h-.057c.08 1.48.12 2.468.12 2.964V18h-1.758V8.72h2.679l2.196 7.096h.038l2.33-7.096h2.678V18h-1.834v-4.393c0-.207.002-.446.006-.717.009-.27.038-.99.089-2.158h-.057L139.487 18h-1.803zm11.848-3.561L147.361 18h-2.184l2.641-4.082c-.525-.211-.927-.537-1.206-.977-.28-.444-.419-.967-.419-1.568 0-.85.3-1.504.901-1.961.605-.462 1.473-.692 2.603-.692h3.021V18h-1.968v-3.561h-1.218zm1.218-4.107h-.971c-.508 0-.901.091-1.181.273-.279.182-.418.484-.418.908 0 .41.135.734.406.97.271.238.685.356 1.244.356h.92v-2.507zm7.356 6.03h.718a21.877 21.877 0 001.453-3.675c.356-1.227.62-2.55.794-3.967h5.408v7.642h1.238v4.342h-1.898V18h-5.815v2.704h-1.898v-4.342zm4.526-6.005c-.135.97-.361 1.996-.679 3.079a21.56 21.56 0 01-1.06 2.926h3.625v-6.005h-1.886zm15.333 2.99c0 1.536-.381 2.717-1.143 3.542-.762.825-1.853 1.238-3.275 1.238s-2.514-.413-3.276-1.238c-.761-.825-1.142-2.01-1.142-3.554 0-1.545.381-2.724 1.142-3.536.766-.817 1.862-1.225 3.288-1.225 1.427 0 2.516.41 3.27 1.231.757.821 1.136 2.002 1.136 3.542zm-6.773 0c0 1.037.197 1.818.59 2.343.394.524.982.787 1.765.787 1.57 0 2.355-1.044 2.355-3.13 0-2.09-.781-3.136-2.343-3.136-.782 0-1.373.265-1.771.794-.397.525-.596 1.305-.596 2.342zm13.028-3.123c-.741 0-1.314.28-1.72.838-.406.554-.61 1.329-.61 2.323 0 2.07.777 3.104 2.33 3.104.652 0 1.441-.163 2.368-.489v1.65c-.762.318-1.613.477-2.552.477-1.35 0-2.383-.408-3.098-1.225-.715-.821-1.073-1.998-1.073-3.53 0-.964.176-1.809.527-2.532.352-.728.855-1.284 1.511-1.67.66-.389 1.433-.584 2.317-.584.901 0 1.807.218 2.717.654l-.635 1.6a10.528 10.528 0 00-1.047-.432 3.128 3.128 0 00-1.035-.184zM192.538 18h-1.968v-7.643h-2.52V8.72h7.008v1.637h-2.52V18zm10.02 0l-.673-2.209h-3.384L197.829 18h-2.121l3.276-9.318h2.406L204.678 18h-2.12zm-1.143-3.86l-1.054-3.395c-.076-.263-.131-.47-.165-.622-.139.541-.539 1.88-1.199 4.018h2.418zm4.827-5.42h2.888c1.316 0 2.271.188 2.863.565.597.372.895.967.895 1.783 0 .555-.131 1.01-.394 1.365-.258.356-.603.57-1.034.641v.064c.588.13 1.011.376 1.269.736.263.36.394.838.394 1.435 0 .846-.307 1.506-.921 1.98-.609.474-1.438.711-2.488.711h-3.472V8.72zm1.968 3.675h1.142c.534 0 .919-.082 1.156-.247.241-.166.361-.438.361-.82 0-.355-.131-.609-.393-.761-.258-.157-.669-.235-1.232-.235h-1.034v2.063zm0 1.562v2.418h1.282c.542 0 .942-.104 1.2-.311.258-.207.387-.525.387-.952 0-.77-.55-1.155-1.65-1.155h-1.219zM222.933 18h-2.235l-3.364-4.704V18h-1.968V8.72h1.968v4.494l3.326-4.494h2.095l-3.383 4.456L222.933 18zm1.558-9.28h1.771V13.2l-.026 1.2-.063 1.365h.038l4.285-7.046h2.355V18h-1.752v-4.456c0-.597.038-1.481.114-2.653h-.051L226.858 18h-2.367V8.72zM31.917 14.34l-1.62-2.479a3.866 3.866 0 00-3.25-1.75h-4.19v-2.41a2.671 2.671 0 00-2.669-2.668h-7.841A4.986 4.986 0 007.459.99 4.984 4.984 0 002.48 5.97c0 1.726.884 3.249 2.222 4.142H.508a.508.508 0 100 1.016h5.08v1.016H3.554a.508.508 0 000 1.016h2.032v1.015H.508a.508.508 0 100 1.016h5.08v2.25a2.548 2.548 0 00-1.525 2.328v.502c0 .28.228.508.509.508h4.505a2.811 2.811 0 002.732 2.173c1.33 0 2.445-.93 2.733-2.173h9.773a2.812 2.812 0 002.733 2.173c1.329 0 2.444-.93 2.733-2.173h1.711c.28 0 .508-.227.508-.508v-5.654a.508.508 0 00-.083-.278zM3.497 5.97a3.968 3.968 0 013.962-3.963 3.967 3.967 0 013.963 3.963 3.967 3.967 0 01-3.963 3.963A3.968 3.968 0 013.496 5.97zm3.106 9.221H7.62a.508.508 0 100-1.016H6.603V13.16h3.556a.508.508 0 100-1.016H6.603v-1.016h6.603a.508.508 0 000-1.016h-2.99a4.976 4.976 0 002.218-4.064h7.755c.91 0 1.652.742 1.652 1.653v9.522H6.603v-2.031zm15.238 4.572H14.59a2.797 2.797 0 00-.722-1.524h7.974v1.524zM6.61 18.239h3.142c-.382.413-.642.94-.721 1.524H5.079a1.532 1.532 0 011.53-1.524zm5.2 3.697a1.794 1.794 0 01-1.793-1.792c0-.988.805-1.792 1.792-1.792.989 0 1.793.804 1.793 1.792s-.804 1.792-1.793 1.792zm15.238 0a1.794 1.794 0 01-1.792-1.792c0-.988.804-1.792 1.792-1.792s1.792.804 1.792 1.792-.804 1.792-1.792 1.792zm3.936-2.173h-1.157a2.81 2.81 0 00-2.78-2.427 2.81 2.81 0 00-2.779 2.427h-1.41v-8.635h4.188c.976 0 1.874.482 2.401 1.288l1.537 2.352v4.995z"/><path d="M27.878 20.144a.83.83 0 11-1.661 0 .83.83 0 011.662 0zM12.64 20.144a.83.83 0 11-1.661 0 .83.83 0 011.661 0zM8.127 5.97V3.748a.508.508 0 10-1.016 0v2.056L6.074 7.226a.507.507 0 10.821.598L8.03 6.27a.508.508 0 00.097-.3zM26.876 11.636h-.971a.508.508 0 00-.508.508v3.555c0 .281.227.508.508.508h3.418a.874.874 0 00.764-.44.872.872 0 00.003-.88l-1.187-2.075a2.34 2.34 0 00-2.027-1.176zm-.463 3.556v-2.54h.463c.473 0 .911.254 1.145.664l1.072 1.875h-2.68z"/></svg><svg viewBox="0 0 20 32" id="icon-arrow-left" xmlns="http://www.w3.org/2000/svg"><path d="M1.038 17.015l16.014 14.593a1.35 1.35 0 001.903 0 1.335 1.335 0 000-1.894L3.907 16 18.953 2.286a1.335 1.335 0 000-1.894 1.35 1.35 0 00-1.903 0L1.037 14.985c-.28.279-.4.648-.382 1.014a1.33 1.33 0 00.383 1.016z"/></svg><svg viewBox="0 0 20 32" id="icon-arrow-right" xmlns="http://www.w3.org/2000/svg"><path d="M18.964 14.985L2.951.392a1.35 1.35 0 00-1.903 0 1.335 1.335 0 000 1.894L16.095 16 1.05 29.714a1.335 1.335 0 000 1.894 1.35 1.35 0 001.903 0l16.013-14.593c.28-.279.4-.648.382-1.014a1.33 1.33 0 00-.383-1.016z"/></svg><svg viewBox="0 0 50 44" id="icon-bike" xmlns="http://www.w3.org/2000/svg"><path d="M48.512 31.392a1.463 1.463 0 001.383-1.46c0-4.216-3.384-7.518-7.703-7.518h-1.428l-1.745-8.281a4.76 4.76 0 002.865-4.363 4.756 4.756 0 00-4.748-4.754h-6.75c-.808 0-1.463.656-1.463 1.465v1.824h-3.596a1.464 1.464 0 000 2.93h3.596v1.824c0 .809.655 1.465 1.463 1.465h.65a8.187 8.187 0 00-1.944 5.303v8.335a.077.077 0 01-.077.078h-5.91a.078.078 0 01-.075-.056l-1.593-5.39a3.017 3.017 0 002.233-2.91c0-3.307-2.687-5.997-5.989-5.997H4.499A4.506 4.506 0 000 18.391a4.509 4.509 0 003.871 4.46 11.307 11.307 0 00-3.779 8.442v4.56c0 .809.656 1.465 1.464 1.465H2.82c.682 3.402 3.689 5.974 7.284 5.974 3.596 0 6.603-2.572 7.284-5.974h17.898c.681 3.402 3.688 5.974 7.284 5.974 4.096 0 7.429-3.337 7.429-7.439a7.404 7.404 0 00-1.488-4.46zm-1.783-2.925h-3.294a7.425 7.425 0 00-2.395.107v-3.23h1.152c2.143 0 3.914 1.29 4.537 3.123zM31.849 7.946h5.287a1.825 1.825 0 010 3.648h-5.287V7.946zm-8.744 23.223h5.91a3.009 3.009 0 003.003-3.007v-8.336a5.297 5.297 0 014.123-5.16l1.974 9.366v5.873a7.452 7.452 0 00-2.828 4.483H20.74c-.683-5.256-5.023-9.188-10.44-9.188-2.416 0-4.585.79-6.295 2.146 1.413-2.646 4.2-4.45 7.4-4.45h7.01l1.809 6.12a3.02 3.02 0 002.88 2.153zM3.137 34.39c.256-1.56.922-2.965 1.94-4.054 1.329-1.422 3.184-2.205 5.223-2.205 3.774 0 6.823 2.652 7.477 6.258H3.137zM4.5 19.965a1.575 1.575 0 010-3.15H17.68a3.068 3.068 0 013.063 3.067c-.013.06-.11.1-.289.083H4.5zm5.606 20.396a4.51 4.51 0 01-4.258-3.044h8.516a4.51 4.51 0 01-4.258 3.044zm32.466 0a4.511 4.511 0 01-4.503-4.51 4.511 4.511 0 014.503-4.508 4.511 4.511 0 014.503 4.509 4.511 4.511 0 01-4.503 4.509z"/><path d="M42.57 37.328a1.474 1.474 0 100-2.948 1.474 1.474 0 000 2.947zM1.524 9.64h13.122a1.464 1.464 0 000-2.929H1.524a1.464 1.464 0 000 2.93zM6.385 3.638H19.62a1.464 1.464 0 000-2.93H6.385a1.464 1.464 0 000 2.93z"/></svg><svg viewBox="0 0 50 50" id="icon-box" xmlns="http://www.w3.org/2000/svg"><path d="M33.691 50H11.72C5.257 50 0 44.743 0 38.281V11.72C0 5.257 5.257 0 11.719 0H38.28C44.743 0 50 5.257 50 11.719v17.285c-.103 2.591-3.804 2.59-3.906 0V11.719c0-4.308-3.505-7.813-7.813-7.813H11.72c-4.308 0-7.813 3.505-7.813 7.813V38.28c0 4.308 3.505 7.813 7.813 7.813H33.69c2.592.103 2.59 3.804 0 3.906zm-1.757-39.258A1.953 1.953 0 0029.98 8.79h-9.96c-2.592.103-2.59 3.804 0 3.906h9.96a1.953 1.953 0 001.954-1.953zm-.586 32.13c-.499 0-.998-.19-1.379-.57l-3.25-3.24A5.802 5.802 0 0125 34.928c0-1.563.61-3.032 1.718-4.136l3.266-3.186a1.953 1.953 0 112.727 2.797l-3.241 3.161c-.749.723-.746 2.013.006 2.733l3.25 3.238c1.235 1.224.338 3.347-1.378 3.337zm16.18 4.618c5.313-5.334 1.478-14.597-6.073-14.58h-6.982c-2.592.103-2.59 3.804 0 3.906h6.982a4.644 4.644 0 014.639 4.64c0 2.557-2.06 4.638-4.59 4.638-2.59.102-2.591 3.803 0 3.906a8.415 8.415 0 006.025-2.51z"/></svg><svg viewBox="0 0 32 31" id="icon-cart"><path d="M31.798 4.039a.923.923 0 00-.721-.347H6.509L5.822.715A.923.923 0 004.923 0h-4a.923.923 0 000 1.846H4.19l4.663 20.208c.097.419.47.715.9.715h18.494a.923.923 0 100-1.846h-17.76l-.71-3.077h18.532c.431 0 .806-.3.9-.72l2.77-12.308a.923.923 0 00-.18-.78zM27.569 16H9.35L6.937 5.538h22.987L27.57 16zM13.538 24a3.388 3.388 0 00-3.384 3.385 3.388 3.388 0 003.384 3.384 3.388 3.388 0 003.385-3.384A3.388 3.388 0 0013.538 24zm0 4.923A1.54 1.54 0 0112 27.385c0-.849.69-1.539 1.538-1.539.849 0 1.539.69 1.539 1.539a1.54 1.54 0 01-1.539 1.538zM24.615 24a3.388 3.388 0 00-3.384 3.385 3.388 3.388 0 003.384 3.384A3.388 3.388 0 0028 27.385 3.388 3.388 0 0024.615 24zm0 4.923a1.54 1.54 0 01-1.538-1.538c0-.849.69-1.539 1.538-1.539.849 0 1.539.69 1.539 1.539a1.54 1.54 0 01-1.539 1.538z"/></svg><svg viewBox="0 0 8 4" id="icon-chevron"><path d="M3.475 3.894L.223.627a.37.37 0 010-.52.363.363 0 01.516 0l2.994 3.008L6.728.108a.364.364 0 01.516 0 .37.37 0 010 .52L3.992 3.893a.367.367 0 01-.517 0z"/></svg><svg viewBox="0 0 18 18" id="icon-close-btn" xmlns="http://www.w3.org/2000/svg"><g clip-path="url(#hclip0_1922_2374)"><path d="M10.055 9.005l7.716-7.716A.75.75 0 1016.71.23L8.995 7.945 1.28.23A.75.75 0 00.22 1.29l7.716 7.716L.22 16.721a.75.75 0 001.06 1.06l7.716-7.716 7.716 7.716a.75.75 0 001.06-1.06l-7.716-7.716z"/></g><defs><clipPath id="hclip0_1922_2374"><path d="M0 0h18v18H0z"/></clipPath></defs></svg><svg viewBox="0 0 32 23" id="icon-del-address" xmlns="http://www.w3.org/2000/svg"><path d="M31.917 14.34l-1.62-2.479a3.866 3.866 0 00-3.25-1.75h-4.19v-2.41a2.671 2.671 0 00-2.669-2.668h-7.841A4.986 4.986 0 007.459.99 4.984 4.984 0 002.48 5.97c0 1.726.884 3.249 2.222 4.142H.508a.508.508 0 100 1.016h5.08v1.016H3.554a.508.508 0 000 1.016h2.032v1.015H.508a.508.508 0 100 1.016h5.08v2.25a2.548 2.548 0 00-1.525 2.328v.502c0 .28.228.508.509.508h4.505a2.811 2.811 0 002.732 2.173c1.33 0 2.445-.93 2.733-2.173h9.773a2.812 2.812 0 002.733 2.173c1.329 0 2.444-.93 2.733-2.173h1.711c.28 0 .508-.227.508-.508v-5.654a.508.508 0 00-.083-.278zM3.497 5.97a3.968 3.968 0 013.962-3.963 3.967 3.967 0 013.963 3.963 3.967 3.967 0 01-3.963 3.963A3.968 3.968 0 013.496 5.97zm3.106 9.221H7.62a.508.508 0 100-1.016H6.603V13.16h3.556a.508.508 0 100-1.016H6.603v-1.016h6.603a.508.508 0 100-1.016h-2.99a4.976 4.976 0 002.218-4.064h7.755c.91 0 1.652.742 1.652 1.653v9.522H6.603v-2.031zm15.238 4.572H14.59a2.797 2.797 0 00-.722-1.524h7.974v1.524zM6.61 18.239h3.142c-.382.413-.642.94-.721 1.524H5.079a1.532 1.532 0 011.53-1.524zm5.2 3.697a1.794 1.794 0 01-1.793-1.792c0-.988.805-1.792 1.792-1.792.989 0 1.793.804 1.793 1.792s-.804 1.792-1.793 1.792zm15.238 0a1.794 1.794 0 01-1.792-1.792c0-.988.804-1.792 1.792-1.792s1.792.804 1.792 1.792-.804 1.792-1.792 1.792zm3.936-2.173h-1.157a2.81 2.81 0 00-2.78-2.427 2.81 2.81 0 00-2.779 2.427h-1.41v-8.635h4.188c.976 0 1.874.482 2.401 1.288l1.537 2.352v4.995z"/><path d="M27.878 20.144a.83.83 0 11-1.661 0 .83.83 0 011.662 0zM12.64 20.144a.83.83 0 11-1.661 0 .83.83 0 011.661 0zM8.127 5.97V3.748a.508.508 0 10-1.016 0v2.056L6.074 7.226a.507.507 0 10.821.598L8.03 6.27a.508.508 0 00.097-.3zM26.876 11.636h-.971a.508.508 0 00-.508.508v3.555c0 .281.227.508.508.508h3.418a.874.874 0 00.764-.44.872.872 0 00.003-.88l-1.187-2.075a2.34 2.34 0 00-2.027-1.176zm-.463 3.556v-2.54h.463c.473 0 .911.254 1.145.664l1.072 1.875h-2.68z"/></svg><svg viewBox="0 0 33 32" id="icon-facebook" xmlns="http://www.w3.org/2000/svg"><g clip-path="url(#jclip0_20_50)"><path d="M21.65 5.313h2.901V.225C24.051.156 22.33 0 20.325 0c-4.183 0-7.048 2.65-7.048 7.519V12H8.66v5.688h4.616V32h5.659V17.69h4.429L24.068 12h-5.133V8.083c0-1.644.44-2.77 2.715-2.77z"/></g><defs><clipPath id="jclip0_20_50"><path transform="translate(.469)" d="M0 0h31.778v32H0z"/></clipPath></defs></svg><svg viewBox="0 0 21 20" id="icon-glass" xmlns="http://www.w3.org/2000/svg"><path d="M9.02 16.472C4.477 16.472.78 12.777.78 8.236S4.476 0 9.02 0c4.545 0 8.242 3.695 8.242 8.236s-3.697 8.236-8.242 8.236zm0-14.91c-3.682 0-6.679 2.994-6.679 6.674s2.997 6.675 6.68 6.675 6.68-2.995 6.68-6.675c0-3.68-2.997-6.675-6.68-6.675zm11.53 18.21a.78.78 0 000-1.105l-3.496-3.493a.782.782 0 00-1.105 1.104l3.496 3.493a.779.779 0 001.105 0z"/></svg><svg viewBox="0 0 32 29" id="icon-heart"><path d="M29.665 2.777C28.087.987 25.897 0 23.5 0c-3.372 0-5.506 2.014-6.703 3.703-.311.438-.575.878-.797 1.292a12.245 12.245 0 00-.797-1.292C14.006 2.013 11.872 0 8.5 0 6.103 0 3.913.986 2.335 2.777.829 4.486 0 6.774 0 9.22c0 2.662 1.04 5.139 3.272 7.793 1.994 2.373 4.864 4.818 8.187 7.65a385.452 385.452 0 013.883 3.34l.04.035a.935.935 0 001.236 0l.04-.035c1.364-1.193 2.644-2.284 3.883-3.34 3.323-2.832 6.193-5.277 8.187-7.65C30.96 14.36 32 11.883 32 9.22c0-2.446-.83-4.734-2.335-6.443zm-10.34 20.46c-1.068.909-2.167 1.845-3.325 2.852-1.158-1.007-2.257-1.943-3.325-2.853-6.503-5.542-10.8-9.203-10.8-14.016 0-1.99.663-3.837 1.866-5.203A6.258 6.258 0 018.5 1.875c2.57 0 4.232 1.584 5.174 2.912a11.113 11.113 0 011.435 2.854.937.937 0 001.782 0c.15-.461.591-1.662 1.436-2.854.94-1.328 2.602-2.912 5.173-2.912 1.851 0 3.541.76 4.759 2.142 1.203 1.366 1.866 3.213 1.866 5.203 0 4.813-4.297 8.474-10.8 14.016z"/></svg><svg viewBox="0 0 50 50" id="icon-hours" xmlns="http://www.w3.org/2000/svg"><g clip-path="url(#mclip0_15_116)"><path d="M48.866 17.536a1.465 1.465 0 00-2.796.873c.664 2.125 1 4.343 1 6.591 0 12.17-9.9 22.07-22.07 22.07S2.93 37.17 2.93 25 12.83 2.93 25 2.93a22.065 22.065 0 0115.165 6.037l-3.141-.783a1.465 1.465 0 00-.709 2.843l8.44 2.103.012.003a1.466 1.466 0 001.386-.397c.364-.37.505-.904.371-1.405l-2.242-8.388a1.465 1.465 0 00-2.83.757l.878 3.284A24.992 24.992 0 0025 0C18.322 0 12.044 2.6 7.322 7.322 2.6 12.044 0 18.322 0 25c0 6.678 2.6 12.956 7.322 17.678A24.837 24.837 0 0025 50c6.678 0 12.956-2.6 17.678-7.322C47.4 37.956 50 31.678 50 25c0-2.545-.382-5.056-1.134-7.464z"/><path d="M28.337 26.192h-.123v-7.46a1.465 1.465 0 00-2.644-.869l-6.558 8.91a1.464 1.464 0 001.177 2.333l5.095.01v2.24a1.465 1.465 0 002.93 0v-2.234H28.334a1.465 1.465 0 00.003-2.93zm-5.252-.01l2.2-2.989v2.993l-2.2-.004z"/><path d="M17.597 29.877h-4.338c.688-.8 1.496-1.583 2.25-2.314 1.906-1.849 3.553-3.445 3.553-5.301a5.062 5.062 0 00-5.058-5.055 5.043 5.043 0 00-4.655 3.088 1.465 1.465 0 002.699 1.139 2.118 2.118 0 011.957-1.297c1.172 0 2.127.953 2.127 2.125 0 .032-.018.332-.615 1.072-.516.64-1.26 1.362-2.048 2.126-1.589 1.542-3.39 3.288-4.28 5.286a1.463 1.463 0 001.338 2.06h7.07a1.465 1.465 0 000-2.929zM36.635 22.27c-.49 0-.961.09-1.4.257v-3.904a1.465 1.465 0 10-2.93 0v12.754a1.465 1.465 0 102.93 0v-4.101c.018-.093.028-.189.028-.287 0-.97.628-1.79 1.372-1.79.744 0 1.373.82 1.373 1.79v4.388a1.465 1.465 0 102.93 0V26.99c0-2.602-1.93-4.72-4.303-4.72z"/></g><defs><clipPath id="mclip0_15_116"><path d="M0 0h50v50H0z"/></clipPath></defs></svg><svg viewBox="0 0 33 32" id="icon-instagram" xmlns="http://www.w3.org/2000/svg"><g clip-path="url(#nclip0_20_42)"><path d="M16.449 7.784c-4.506 0-8.154 3.677-8.154 8.21 0 4.538 3.652 8.211 8.154 8.211 4.505 0 8.153-3.677 8.153-8.21 0-4.538-3.651-8.211-8.153-8.211zm0 13.54c-2.925 0-5.293-2.385-5.293-5.33 0-2.943 2.369-5.329 5.293-5.329 2.923 0 5.292 2.386 5.292 5.33.001 2.944-2.367 5.329-5.292 5.329z"/><path d="M22.995.101c-2.924-.137-10.165-.13-13.091 0-2.572.122-4.84.747-6.669 2.588C.18 5.767.57 9.913.57 15.995c0 6.224-.344 10.274 2.665 13.305 3.068 3.088 7.246 2.684 13.214 2.684 6.122 0 8.235.004 10.4-.84 2.944-1.15 5.166-3.8 5.383-8.559.138-2.945.13-10.236 0-13.182C31.97 3.785 28.976.379 22.995.1zm4.628 27.163C25.619 29.28 22.84 29.1 16.41 29.1c-6.62 0-9.275.099-11.212-1.857-2.231-2.236-1.827-5.827-1.827-11.27C3.37 8.606 2.62 3.3 9.96 2.922c1.688-.06 2.184-.08 6.43-.08l.06.04c7.056 0 12.592-.744 12.925 6.648.075 1.686.092 2.193.092 6.462 0 6.59.124 9.279-1.845 11.27z"/><path d="M24.925 9.379a1.912 1.912 0 001.906-1.92c0-1.059-.853-1.918-1.905-1.918A1.912 1.912 0 0023.02 7.46c0 1.06.853 1.919 1.905 1.919z"/></g><defs><clipPath id="nclip0_20_42"><path transform="translate(.554)" d="M0 0h31.778v32H0z"/></clipPath></defs></svg><svg viewBox="0 0 26 17" id="icon-nav"><path d="M.917 0h24.896v1H.917zM.917 8h19.917v1H.917zM.917 16h24.896v1H.917z"/></svg><svg viewBox="0 0 16 16" id="icon-star"><g clip-path="url(#clip0_17_846)"><path d="M.023 6.164a.469.469 0 01.378-.319l4.96-.72L7.58.63a.469.469 0 01.84 0l2.219 4.495 4.96.72a.469.469 0 01.26.8l-3.59 3.498.848 4.94a.469.469 0 01-.68.495L8 13.245l-4.436 2.333a.469.469 0 01-.68-.495l.847-4.94-3.59-3.498a.469.469 0 01-.118-.48z"/></g></svg><svg viewBox="0 0 23 23" id="icon-tel" xmlns="http://www.w3.org/2000/svg"><path d="M21.463 16.589l-3.194-3.196a2.276 2.276 0 00-1.617-.662c-.64 0-1.242.252-1.698.708l-1.244 1.243c-.966-.537-2.25-1.275-3.583-2.609-1.332-1.332-2.07-2.612-2.61-3.583l1.244-1.244c.926-.927.945-2.415.043-3.316L5.61.737A2.266 2.266 0 003.993.072 2.39 2.39 0 002.324.75C2.05.97.674 2.186.161 4.69c-.718 3.507.932 6.882 5.695 11.648 5.322 5.32 9.865 5.733 11.13 5.733.264 0 .423-.017.465-.021 2.482-.291 3.37-1.393 4.02-2.198.84-1.043.837-2.416-.008-3.264zm-1.06 2.403c-.61.756-1.186 1.47-3.111 1.697-.001 0-.107.011-.306.011-1.132 0-5.211-.384-10.16-5.331C2.433 10.974.891 7.96 1.504 4.966c.448-2.185 1.635-3.114 1.682-3.15l.04-.03.036-.036a1.03 1.03 0 01.73-.307c.25 0 .479.093.648.263L7.834 4.9c.368.367.348.985-.043 1.377L6.384 7.683l-.023.024c-.367.404-.324.95-.122 1.306.583 1.052 1.382 2.493 2.918 4.03 1.532 1.531 2.97 2.33 4.02 2.911.104.06.321.158.593.158.32 0 .615-.136.832-.383l1.321-1.32c.197-.198.456-.306.728-.306.25 0 .48.093.649.261l3.192 3.193c.405.407.238 1.03-.09 1.435zM13.388 3.432c1.178.135 2.566.849 3.534 1.818.978.977 1.693 2.379 1.822 3.57a.686.686 0 101.364-.148c-.164-1.506-1.013-3.189-2.216-4.392-1.192-1.192-2.858-2.04-4.347-2.21a.686.686 0 10-.157 1.362zM12.748 6.304c.637.073 1.519.546 2.096 1.123.583.583 1.056 1.473 1.126 2.117a.686.686 0 101.363-.147c-.119-1.1-.849-2.269-1.52-2.94-.664-.664-1.821-1.39-2.909-1.516a.685.685 0 10-.156 1.363z"/></svg><svg viewBox="0 0 33 32" id="icon-telegram" xmlns="http://www.w3.org/2000/svg"><g clip-path="url(#rclip0_20_46)"><path d="M13.328 20.241l-.526 7.446c.753 0 1.078-.326 1.469-.716l3.526-3.393 7.306 5.387c1.34.753 2.284.357 2.646-1.24l4.796-22.63.001-.002c.425-1.994-.716-2.774-2.022-2.285L2.334 13.676c-1.924.752-1.895 1.832-.327 2.322l7.207 2.257 16.74-10.548c.788-.526 1.505-.235.916.29L13.328 20.241z"/></g><defs><clipPath id="rclip0_20_46"><path transform="translate(.86)" d="M0 0h31.778v32H0z"/></clipPath></defs></svg><svg viewBox="0 0 25 32" id="icon-user"><path d="M22.678 19.943a12.5 12.5 0 00-4.085-3.779 9.242 9.242 0 003.093-6.902C21.686 4.155 17.531 0 12.424 0S3.162 4.155 3.162 9.262a9.242 9.242 0 003.092 6.902 12.5 12.5 0 00-4.085 3.779A12.322 12.322 0 000 26.936V32h24.848v-5.064c0-2.505-.75-4.923-2.17-6.993zM5.101 9.263c0-4.039 3.285-7.324 7.323-7.324s7.323 3.285 7.323 7.323-3.285 7.323-7.323 7.323S5.1 13.3 5.1 9.262zM1.939 30.06v-3.125c0-4.109 2.38-7.794 6.101-9.516a9.205 9.205 0 004.384 1.104c1.585 0 3.078-.4 4.383-1.104 3.721 1.722 6.101 5.407 6.101 9.516v3.125H1.94z"/></svg><svg viewBox="0 0 32 32" id="icon-youtube" xmlns="http://www.w3.org/2000/svg"><g clip-path="url(#tclip0_20_48)"><path d="M31.24 7.905l.039.262c-.384-1.372-1.42-2.43-2.738-2.816l-.028-.007c-2.478-.677-12.447-.677-12.447-.677s-9.944-.014-12.446.677A4.045 4.045 0 00.862 8.14l-.007.028c-.925 4.868-.932 10.717.041 15.93l-.04-.265c.383 1.372 1.42 2.43 2.737 2.816l.028.007c2.475.678 12.447.678 12.447.678s9.942 0 12.446-.678a4.044 4.044 0 002.76-2.795l.006-.028c.421-2.264.662-4.87.662-7.53l-.001-.295.001-.307a43.3 43.3 0 00-.703-7.795zM12.885 20.868v-9.724l8.297 4.87-8.297 4.854z"/></g><defs><clipPath id="tclip0_20_48"><path transform="translate(.164)" d="M0 0h31.778v32H0z"/></clipPath></defs></svg></svg>