<svg width="235" height="23">
<path d="M50.8491 18L50.1763 15.791H46.793L46.1201 18H44L47.2754 8.68164H49.6812L52.9692 18H50.8491ZM49.7065 14.1406C49.0845 12.139 48.7332 11.007 48.6528 10.7446C48.5767 10.4823 48.5216 10.2749 48.4878 10.1226C48.3481 10.6642 47.9482 12.0036 47.2881 14.1406H49.7065ZM53.4291 16.3623H54.1463C54.76 15.1351 55.2445 13.91 55.6 12.687C55.9554 11.4598 56.2199 10.1374 56.3934 8.71973H61.8016V16.3623H63.0394V20.7041H61.1415V18H55.327V20.7041H53.4291V16.3623ZM57.9549 10.3574C57.8195 11.3265 57.5931 12.3527 57.2757 13.436C56.9626 14.5194 56.6092 15.4948 56.2157 16.3623H59.8402V10.3574H57.9549ZM66.8318 13.0869H67.4792C68.0844 13.0869 68.5372 12.9684 68.8376 12.7314C69.1381 12.4902 69.2883 12.1411 69.2883 11.6841C69.2883 11.2228 69.1613 10.8822 68.9074 10.6621C68.6578 10.4421 68.2642 10.332 67.7268 10.332H66.8318V13.0869ZM71.2751 11.6143C71.2751 12.613 70.962 13.3768 70.3357 13.9058C69.7136 14.4347 68.827 14.6992 67.676 14.6992H66.8318V18H64.864V8.71973H67.8283C68.954 8.71973 69.8088 8.96305 70.3928 9.44971C70.981 9.93213 71.2751 10.6536 71.2751 11.6143ZM78.7618 18H73.4171V8.71973H78.7618V10.332H75.3848V12.3696H78.5269V13.9819H75.3848V16.375H78.7618V18ZM85.0361 10.2241C84.2955 10.2241 83.7221 10.5034 83.3159 11.062C82.9096 11.6164 82.7065 12.3908 82.7065 13.3853C82.7065 15.4546 83.483 16.4893 85.0361 16.4893C85.6878 16.4893 86.477 16.3263 87.4038 16.0005V17.6509C86.642 17.9683 85.7914 18.127 84.852 18.127C83.5021 18.127 82.4695 17.7186 81.7543 16.9019C81.0392 16.0809 80.6816 14.9045 80.6816 13.3726C80.6816 12.4077 80.8572 11.5635 81.2084 10.8398C81.5597 10.112 82.0633 9.5555 82.7192 9.17041C83.3793 8.78109 84.1516 8.58643 85.0361 8.58643C85.9374 8.58643 86.843 8.80436 87.7529 9.24023L87.1181 10.8398C86.7711 10.6748 86.422 10.5309 86.0707 10.4082C85.7195 10.2855 85.3746 10.2241 85.0361 10.2241ZM93.5412 8.71973H95.3122V13.2012L95.2868 14.4009L95.2233 15.7656H95.2614L99.5461 8.71973H101.901V18H100.149V13.5439C100.149 12.9473 100.187 12.0628 100.263 10.8906H100.213L95.9088 18H93.5412V8.71973ZM108.4 8.71973H111.288C112.605 8.71973 113.559 8.90804 114.151 9.28467C114.748 9.65706 115.046 10.2516 115.046 11.0684C115.046 11.6227 114.915 12.0776 114.653 12.4331C114.395 12.7886 114.05 13.0023 113.618 13.0742V13.1377C114.206 13.2689 114.629 13.5143 114.888 13.874C115.15 14.2337 115.281 14.7119 115.281 15.3086C115.281 16.1549 114.974 16.8151 114.361 17.2891C113.751 17.763 112.922 18 111.872 18H108.4V8.71973ZM110.368 12.395H111.511C112.044 12.395 112.429 12.3125 112.666 12.1475C112.907 11.9824 113.028 11.7095 113.028 11.3286C113.028 10.9731 112.897 10.7192 112.634 10.5669C112.376 10.4103 111.966 10.332 111.403 10.332H110.368V12.395ZM110.368 13.9565V16.375H111.65C112.192 16.375 112.592 16.2713 112.85 16.064C113.108 15.8566 113.237 15.5392 113.237 15.1118C113.237 14.3416 112.687 13.9565 111.587 13.9565H110.368ZM119.492 13.0869H120.14C120.745 13.0869 121.198 12.9684 121.498 12.7314C121.799 12.4902 121.949 12.1411 121.949 11.6841C121.949 11.2228 121.822 10.8822 121.568 10.6621C121.318 10.4421 120.925 10.332 120.387 10.332H119.492V13.0869ZM123.936 11.6143C123.936 12.613 123.623 13.3768 122.996 13.9058C122.374 14.4347 121.488 14.6992 120.337 14.6992H119.492V18H117.525V8.71973H120.489C121.615 8.71973 122.469 8.96305 123.053 9.44971C123.642 9.93213 123.936 10.6536 123.936 11.6143ZM131.422 18H126.078V8.71973H131.422V10.332H128.046V12.3696H131.188V13.9819H128.046V16.375H131.422V18ZM137.684 18L135.45 10.7192H135.393C135.473 12.2004 135.513 13.1885 135.513 13.6836V18H133.755V8.71973H136.434L138.63 15.8164H138.668L140.998 8.71973H143.676V18H141.842V13.6074C141.842 13.4001 141.844 13.161 141.848 12.8901C141.857 12.6193 141.886 11.8999 141.937 10.7319H141.88L139.487 18H137.684ZM149.532 14.439L147.361 18H145.177L147.818 13.9185C147.293 13.7069 146.891 13.381 146.612 12.9409C146.332 12.4966 146.193 11.974 146.193 11.373C146.193 10.5225 146.493 9.86865 147.094 9.41162C147.699 8.95036 148.567 8.71973 149.697 8.71973H152.718V18H150.75V14.439H149.532ZM150.75 10.332H149.779C149.271 10.332 148.878 10.423 148.598 10.605C148.319 10.7869 148.18 11.0895 148.18 11.5127C148.18 11.9232 148.315 12.2469 148.586 12.4839C148.857 12.7209 149.271 12.8394 149.83 12.8394H150.75V10.332ZM158.106 16.3623H158.824C159.437 15.1351 159.922 13.91 160.277 12.687C160.633 11.4598 160.897 10.1374 161.071 8.71973H166.479V16.3623H167.717V20.7041H165.819V18H160.004V20.7041H158.106V16.3623ZM162.632 10.3574C162.497 11.3265 162.271 12.3527 161.953 13.436C161.64 14.5194 161.287 15.4948 160.893 16.3623H164.518V10.3574H162.632ZM177.965 13.3472C177.965 14.8833 177.584 16.064 176.822 16.8892C176.06 17.7144 174.969 18.127 173.547 18.127C172.125 18.127 171.033 17.7144 170.271 16.8892C169.51 16.064 169.129 14.8791 169.129 13.3345C169.129 11.7899 169.51 10.6113 170.271 9.79883C171.037 8.9821 172.133 8.57373 173.559 8.57373C174.986 8.57373 176.075 8.98421 176.829 9.80518C177.586 10.6261 177.965 11.8068 177.965 13.3472ZM171.192 13.3472C171.192 14.384 171.389 15.1647 171.782 15.6895C172.176 16.2142 172.764 16.4766 173.547 16.4766C175.117 16.4766 175.902 15.4334 175.902 13.3472C175.902 11.2567 175.121 10.2114 173.559 10.2114C172.777 10.2114 172.186 10.4759 171.788 11.0049C171.391 11.5296 171.192 12.3104 171.192 13.3472ZM184.22 10.2241C183.479 10.2241 182.906 10.5034 182.5 11.062C182.094 11.6164 181.89 12.3908 181.89 13.3853C181.89 15.4546 182.667 16.4893 184.22 16.4893C184.872 16.4893 185.661 16.3263 186.588 16.0005V17.6509C185.826 17.9683 184.975 18.127 184.036 18.127C182.686 18.127 181.653 17.7186 180.938 16.9019C180.223 16.0809 179.865 14.9045 179.865 13.3726C179.865 12.4077 180.041 11.5635 180.392 10.8398C180.744 10.112 181.247 9.5555 181.903 9.17041C182.563 8.78109 183.336 8.58643 184.22 8.58643C185.121 8.58643 186.027 8.80436 186.937 9.24023L186.302 10.8398C185.955 10.6748 185.606 10.5309 185.255 10.4082C184.903 10.2855 184.559 10.2241 184.22 10.2241ZM192.538 18H190.57V10.3574H188.05V8.71973H195.058V10.3574H192.538V18ZM202.558 18L201.885 15.791H198.501L197.829 18H195.708L198.984 8.68164H201.39L204.678 18H202.558ZM201.415 14.1406C200.793 12.139 200.442 11.007 200.361 10.7446C200.285 10.4823 200.23 10.2749 200.196 10.1226C200.057 10.6642 199.657 12.0036 198.997 14.1406H201.415ZM206.242 8.71973H209.13C210.446 8.71973 211.401 8.90804 211.993 9.28467C212.59 9.65706 212.888 10.2516 212.888 11.0684C212.888 11.6227 212.757 12.0776 212.494 12.4331C212.236 12.7886 211.891 13.0023 211.46 13.0742V13.1377C212.048 13.2689 212.471 13.5143 212.729 13.874C212.992 14.2337 213.123 14.7119 213.123 15.3086C213.123 16.1549 212.816 16.8151 212.202 17.2891C211.593 17.763 210.764 18 209.714 18H206.242V8.71973ZM208.21 12.395H209.352C209.886 12.395 210.271 12.3125 210.508 12.1475C210.749 11.9824 210.869 11.7095 210.869 11.3286C210.869 10.9731 210.738 10.7192 210.476 10.5669C210.218 10.4103 209.807 10.332 209.244 10.332H208.21V12.395ZM208.21 13.9565V16.375H209.492C210.034 16.375 210.434 16.2713 210.692 16.064C210.95 15.8566 211.079 15.5392 211.079 15.1118C211.079 14.3416 210.529 13.9565 209.429 13.9565H208.21ZM222.933 18H220.698L217.334 13.2964V18H215.366V8.71973H217.334V13.2139L220.66 8.71973H222.755L219.372 13.1758L222.933 18ZM224.491 8.71973H226.262V13.2012L226.236 14.4009L226.173 15.7656H226.211L230.496 8.71973H232.851V18H231.099V13.5439C231.099 12.9473 231.137 12.0628 231.213 10.8906H231.162L226.858 18H224.491V8.71973Z" fill="white"/>
<path d="M31.9173 14.3394L30.2976 11.861C29.5823 10.7659 28.3671 10.1119 27.0461 10.1119H22.8571V7.70135C22.8571 6.22953 21.6602 5.03266 20.1884 5.03266H12.3465C11.9065 2.73454 9.88363 0.990967 7.45908 0.990967C4.71366 0.990967 2.48035 3.22456 2.48035 5.96969C2.48035 7.69582 3.3642 9.21851 4.70232 10.1119H0.508045C0.227283 10.1119 0 10.3392 0 10.62C0 10.9007 0.227283 11.128 0.508045 11.128H5.58733V12.1438H3.55544C3.27497 12.1438 3.04769 12.3711 3.04769 12.6519C3.04769 12.9326 3.27497 13.1596 3.55544 13.1596H5.58733V14.1754H0.508045C0.227283 14.1754 0 14.4027 0 14.6835C0 14.9642 0.227283 15.1915 0.508045 15.1915H5.58733V17.4411C4.69186 17.8361 4.06349 18.7295 4.06349 19.7694V20.2708C4.06349 20.5516 4.29106 20.7789 4.57153 20.7789H9.07651C9.36541 22.0216 10.4797 22.9517 11.8094 22.9517C13.1394 22.9517 14.2535 22.0216 14.5424 20.7789H24.3147C24.6039 22.0216 25.7182 22.9517 27.0476 22.9517C28.377 22.9517 29.4916 22.0216 29.7805 20.7789H31.4921C31.7729 20.7789 31.9999 20.5516 31.9999 20.2708V14.6172C31.9999 14.5184 31.9711 14.4216 31.9173 14.3394V14.3394ZM3.49615 5.96969C3.49615 3.78463 5.27402 2.00677 7.45908 2.00677C9.64443 2.00677 11.422 3.78463 11.422 5.96969C11.422 8.15475 9.64443 9.93262 7.45908 9.93262C5.27402 9.93262 3.49615 8.15475 3.49615 5.96969ZM6.60313 15.1915H7.61893C7.89969 15.1915 8.12698 14.9642 8.12698 14.6835C8.12698 14.4027 7.89969 14.1754 7.61893 14.1754H6.60313V13.1596H10.1589C10.4393 13.1596 10.6666 12.9326 10.6666 12.6519C10.6666 12.3711 10.4393 12.1438 10.1589 12.1438H6.60313V11.128H13.2063C13.4867 11.128 13.7143 10.9007 13.7143 10.62C13.7143 10.3392 13.4867 10.1119 13.2063 10.1119H10.2158C11.5333 9.23217 12.4073 7.74174 12.434 6.04846H20.1887C21.0999 6.04846 21.8413 6.79018 21.8413 7.70135V17.2231H6.60953C6.60749 17.2231 6.60546 17.2237 6.60313 17.2237V15.1915ZM21.8413 19.7628H14.5886C14.5086 19.1786 14.2494 18.6519 13.8666 18.2389H21.8413V19.7628ZM6.60953 18.2389H9.75225C9.36977 18.6519 9.11022 19.1786 9.03059 19.7628H5.07929C5.08277 18.9222 5.76811 18.2389 6.60953 18.2389ZM11.8094 21.9359C10.8215 21.9359 10.0173 21.132 10.0173 20.1438C10.0173 19.1559 10.8215 18.3517 11.8094 18.3517C12.7976 18.3517 13.6015 19.1559 13.6015 20.1438C13.6015 21.132 12.7976 21.9359 11.8094 21.9359ZM27.0476 21.9359C26.0597 21.9359 25.2555 21.132 25.2555 20.1438C25.2555 19.1559 26.0597 18.3517 27.0476 18.3517C28.0358 18.3517 28.8397 19.1559 28.8397 20.1438C28.8397 21.132 28.0358 21.9359 27.0476 21.9359ZM30.9841 19.7628H29.8267C29.6398 18.3947 28.4662 17.3359 27.0476 17.3359C25.6289 17.3359 24.4556 18.3947 24.2684 19.7628H22.8571V11.128H27.0461C28.0224 11.128 28.9202 11.6096 29.4474 12.4165L30.9841 14.7683V19.7628Z" fill="white"/>
<path d="M27.8785 20.1439C27.8785 20.6029 27.5065 20.9749 27.0476 20.9749C26.5887 20.9749 26.2166 20.6029 26.2166 20.1439C26.2166 19.685 26.5887 19.313 27.0476 19.313C27.5065 19.313 27.8785 19.685 27.8785 20.1439Z" fill="white"/>
<path d="M12.6404 20.1439C12.6404 20.6029 12.2684 20.9749 11.8094 20.9749C11.3508 20.9749 10.9788 20.6029 10.9788 20.1439C10.9788 19.685 11.3508 19.313 11.8094 19.313C12.2684 19.313 12.6404 19.685 12.6404 20.1439Z" fill="white"/>
<path d="M8.12698 5.96977V3.7475C8.12698 3.46674 7.8997 3.23975 7.61894 3.23975C7.33847 3.23975 7.11118 3.46674 7.11118 3.7475V5.8041L6.07446 7.22622C5.90908 7.45292 5.95878 7.77031 6.18548 7.93539C6.27617 8.00166 6.3808 8.03334 6.48456 8.03334C6.64121 8.03334 6.79584 7.96097 6.89524 7.82437L8.02961 6.26884C8.09268 6.18223 8.12698 6.0776 8.12698 5.96977Z" fill="white"/>
<path d="M26.8764 11.6357H25.9048C25.624 11.6357 25.3967 11.863 25.3967 12.1438V15.6992C25.3967 15.98 25.624 16.2073 25.9048 16.2073H29.3233C29.6419 16.2073 29.927 16.0425 30.0868 15.7673C30.2467 15.492 30.247 15.1624 30.0895 14.8878L28.9033 12.8117C28.4892 12.0868 27.7123 11.6357 26.8764 11.6357V11.6357ZM26.4128 15.1915V12.6518H26.8764C27.3487 12.6518 27.7873 12.9062 28.0212 13.316L29.0928 15.1915H26.4128Z" fill="white"/>
</svg>
