<svg width="187" height="23">
<path d="M41.0332 7.71973V9.34473H37.1357V17H35.168V7.71973H41.0332ZM51.2811 12.3472C51.2811 13.8833 50.9003 15.064 50.1385 15.8892C49.3768 16.7144 48.285 17.127 46.8631 17.127C45.4413 17.127 44.3495 16.7144 43.5878 15.8892C42.826 15.064 42.4452 13.8791 42.4452 12.3345C42.4452 10.7899 42.826 9.61133 43.5878 8.79883C44.3537 7.9821 45.4497 7.57373 46.8758 7.57373C48.3019 7.57373 49.3916 7.98421 50.1449 8.80518C50.9024 9.62614 51.2811 10.8068 51.2811 12.3472ZM44.5082 12.3472C44.5082 13.384 44.7049 14.1647 45.0985 14.6895C45.4921 15.2142 46.0803 15.4766 46.8631 15.4766C48.4331 15.4766 49.2181 14.4334 49.2181 12.3472C49.2181 10.2567 48.4374 9.21143 46.8758 9.21143C46.093 9.21143 45.5026 9.47591 45.1048 10.0049C44.7071 10.5296 44.5082 11.3104 44.5082 12.3472ZM55.5622 12.0869H56.2097C56.8148 12.0869 57.2676 11.9684 57.5681 11.7314C57.8685 11.4902 58.0188 11.1411 58.0188 10.6841C58.0188 10.2228 57.8918 9.88216 57.6379 9.66211C57.3882 9.44206 56.9947 9.33203 56.4572 9.33203H55.5622V12.0869ZM60.0056 10.6143C60.0056 11.613 59.6924 12.3768 59.0661 12.9058C58.4441 13.4347 57.5575 13.6992 56.4065 13.6992H55.5622V17H53.5945V7.71973H56.5588C57.6845 7.71973 58.5393 7.96305 59.1233 8.44971C59.7115 8.93213 60.0056 9.65365 60.0056 10.6143ZM65.2706 13.439L63.0997 17H60.9161L63.5567 12.9185C63.032 12.7069 62.63 12.381 62.3507 11.9409C62.0714 11.4966 61.9317 10.974 61.9317 10.373C61.9317 9.52246 62.2322 8.86865 62.8331 8.41162C63.4382 7.95036 64.3057 7.71973 65.4356 7.71973H68.4571V17H66.4893V13.439H65.2706ZM66.4893 9.33203H65.5181C65.0103 9.33203 64.6168 9.42301 64.3375 9.60498C64.0582 9.78695 63.9185 10.0895 63.9185 10.5127C63.9185 10.9232 64.054 11.2469 64.3248 11.4839C64.5956 11.7209 65.0103 11.8394 65.5689 11.8394H66.4893V9.33203ZM78.3115 17H76.3437V13.4136C75.692 13.6336 75.1482 13.7839 74.7123 13.8643C74.2807 13.9447 73.8681 13.9849 73.4746 13.9849C72.5901 13.9849 71.9067 13.7733 71.4243 13.3501C70.9461 12.9227 70.707 12.3239 70.707 11.5537V7.71973H72.6684V10.9951C72.6684 11.4437 72.7721 11.7822 72.9794 12.0107C73.1868 12.235 73.538 12.3472 74.0331 12.3472C74.3802 12.3472 74.725 12.3133 75.0678 12.2456C75.4148 12.1737 75.8401 12.0509 76.3437 11.8774V7.71973H78.3115V17ZM86.7249 17L86.0521 14.791H82.6688L81.9959 17H79.8758L83.1512 7.68164H85.5569L88.845 17H86.7249ZM85.5823 13.1406C84.9603 11.139 84.609 10.007 84.5286 9.74463C84.4524 9.48226 84.3974 9.2749 84.3636 9.12256C84.2239 9.66423 83.824 11.0036 83.1639 13.1406H85.5823ZM93.5324 13.439L91.3615 17H89.1779L91.8185 12.9185C91.2938 12.7069 90.8918 12.381 90.6125 11.9409C90.3332 11.4966 90.1935 10.974 90.1935 10.373C90.1935 9.52246 90.494 8.86865 91.0949 8.41162C91.7 7.95036 92.5675 7.71973 93.6974 7.71973H96.7189V17H94.7511V13.439H93.5324ZM94.7511 9.33203H93.7799C93.2721 9.33203 92.8786 9.42301 92.5993 9.60498C92.32 9.78695 92.1803 10.0895 92.1803 10.5127C92.1803 10.9232 92.3157 11.2469 92.5866 11.4839C92.8574 11.7209 93.2721 11.8394 93.8307 11.8394H94.7511V9.33203ZM110.556 17H108.595V9.35742H106.322L106.221 10.208C105.958 12.3704 105.725 13.8896 105.522 14.7656C105.323 15.6374 105.031 16.251 104.646 16.6064C104.261 16.9619 103.741 17.1354 103.085 17.127C102.729 17.127 102.416 17.0804 102.145 16.9873V15.375C102.391 15.4596 102.621 15.502 102.837 15.502C103.062 15.502 103.239 15.4004 103.37 15.1973C103.502 14.9899 103.624 14.609 103.739 14.0547C103.857 13.4961 104.012 12.5841 104.202 11.3188C104.397 10.0493 104.562 8.84961 104.697 7.71973H110.556V17ZM113.288 7.71973H115.059V12.2012L115.034 13.4009L114.97 14.7656H115.009L119.293 7.71973H121.648V17H119.896V12.5439C119.896 11.9473 119.934 11.0628 120.01 9.89062H119.96L115.656 17H113.288V7.71973ZM131.985 17H130.024V12.9946H126.348V17H124.38V7.71973H126.348V11.3569H130.024V7.71973H131.985V17ZM134.724 7.71973H136.495V12.2012L136.469 13.4009L136.406 14.7656H136.444L140.728 7.71973H143.083V17H141.332V12.5439C141.332 11.9473 141.37 11.0628 141.446 9.89062H141.395L137.091 17H134.724V7.71973ZM148.939 13.439L146.768 17H144.584L147.225 12.9185C146.7 12.7069 146.298 12.381 146.019 11.9409C145.74 11.4966 145.6 10.974 145.6 10.373C145.6 9.52246 145.9 8.86865 146.501 8.41162C147.106 7.95036 147.974 7.71973 149.104 7.71973H152.125V17H150.158V13.439H148.939ZM150.158 9.33203H149.186C148.679 9.33203 148.285 9.42301 148.006 9.60498C147.726 9.78695 147.587 10.0895 147.587 10.5127C147.587 10.9232 147.722 11.2469 147.993 11.4839C148.264 11.7209 148.679 11.8394 149.237 11.8394H150.158V9.33203ZM164.458 17H157.971V15.6353L160.3 13.2803C160.99 12.5736 161.441 12.0848 161.652 11.814C161.864 11.5389 162.016 11.285 162.109 11.0522C162.203 10.8195 162.249 10.5783 162.249 10.3286C162.249 9.95622 162.145 9.67904 161.938 9.49707C161.735 9.3151 161.462 9.22412 161.119 9.22412C160.759 9.22412 160.41 9.30664 160.072 9.47168C159.733 9.63672 159.38 9.87158 159.012 10.1763L157.945 8.91309C158.402 8.52376 158.781 8.2487 159.082 8.08789C159.382 7.92708 159.71 7.80436 160.065 7.71973C160.421 7.63086 160.819 7.58643 161.259 7.58643C161.839 7.58643 162.351 7.69222 162.795 7.90381C163.239 8.1154 163.584 8.41162 163.83 8.79248C164.075 9.17334 164.198 9.60921 164.198 10.1001C164.198 10.5275 164.122 10.9295 163.969 11.3062C163.821 11.6785 163.588 12.0615 163.271 12.4551C162.958 12.8486 162.404 13.4093 161.608 14.1372L160.415 15.2607V15.3496H164.458V17ZM172.484 15.0767H171.367V17H169.45V15.0767H165.489V13.7119L169.558 7.71973H171.367V13.5532H172.484V15.0767ZM169.45 13.5532V11.979C169.45 11.7166 169.461 11.3358 169.482 10.8364C169.503 10.3371 169.52 10.0472 169.533 9.9668H169.482C169.325 10.3138 169.137 10.6523 168.917 10.9824L167.216 13.5532H169.45ZM178.39 7.71973L174.931 17H173.173L176.632 7.71973H178.39ZM180.285 17L183.77 9.38281H179.193V7.73242H185.852V8.96387L182.341 17H180.285Z" fill="white"/>
<path d="M21.4627 16.5887L18.2687 13.3933C17.8397 12.9665 17.2653 12.7314 16.6515 12.7314C16.0128 12.7314 15.4097 12.9829 14.9537 13.4392L13.7104 14.6822C12.7443 14.1452 11.4602 13.4066 10.127 12.0735C8.79538 10.7414 8.05671 9.46105 7.51697 8.48972L8.76146 7.24613C9.68672 6.31895 9.70565 4.83146 8.80379 3.93043L5.6104 0.736948C5.18265 0.308006 4.60826 0.0717773 3.99291 0.0717773C3.36842 0.0717773 2.77767 0.312212 2.32432 0.749838C2.05006 0.970709 0.673731 2.18568 0.160774 4.69131C-0.55742 8.19845 1.09271 11.5728 5.85641 16.3385C11.1779 21.6583 15.7208 22.0718 16.9864 22.0718C17.2499 22.0718 17.4089 22.0555 17.4513 22.0506C19.9331 21.7597 20.8217 20.6575 21.4705 19.8527C22.3112 18.8097 22.3082 17.4373 21.4627 16.5887ZM20.4029 18.992C19.793 19.7484 19.2171 20.4628 17.2918 20.6885C17.2908 20.6886 17.1854 20.7004 16.9864 20.7004C15.8541 20.7004 11.7748 20.3159 6.82611 15.3688C2.43311 10.974 0.891219 7.96012 1.50419 4.9663C1.9516 2.78082 3.13942 1.8519 3.18558 1.81662L3.22654 1.78636L3.26247 1.75034C3.46076 1.55223 3.72012 1.44307 3.99282 1.44307C4.24112 1.44307 4.47076 1.53614 4.64007 1.706L7.83419 4.90021C8.2017 5.26735 8.18214 5.88516 7.79113 6.27699L6.38373 7.68321L6.3606 7.70744C5.99382 8.11142 6.03697 8.65738 6.23901 9.01291C6.82199 10.065 7.62054 11.5058 9.15713 13.0429C10.6886 14.5743 12.1274 15.3723 13.1765 15.9541C13.2815 16.0131 13.4984 16.112 13.7698 16.112C14.0903 16.112 14.3846 15.9764 14.6025 15.7291L15.9233 14.4086C16.1205 14.2113 16.379 14.1026 16.6514 14.1026C16.9002 14.1026 17.131 14.196 17.3 14.364L20.4919 17.5573C20.8974 17.9642 20.73 18.5863 20.4029 18.992Z" fill="white"/>
<path d="M13.3881 3.43156C14.5663 3.56714 15.9535 4.28076 16.9221 5.24954C17.8999 6.22727 18.6152 7.62855 18.7444 8.81948C18.7825 9.17081 19.0796 9.43117 19.4252 9.43117C19.4499 9.43117 19.4749 9.4298 19.5 9.42715C19.8765 9.38628 20.1485 9.04803 20.1077 8.67156C19.9443 7.16615 19.0952 5.48339 17.8918 4.27994C16.6997 3.08773 15.0341 2.24073 13.5449 2.06931C13.1689 2.02571 12.8287 2.29594 12.7854 2.67204C12.7421 3.04815 13.0118 3.38823 13.3881 3.43156Z" fill="white"/>
<path d="M12.7476 6.30376C13.3847 6.37717 14.2666 6.84981 14.8443 7.42749C15.4269 8.0102 15.9004 8.90045 15.9702 9.5445C16.0083 9.89592 16.3054 10.1563 16.651 10.1563C16.6757 10.1563 16.7006 10.1549 16.7257 10.1523C17.1021 10.1114 17.3743 9.77314 17.3334 9.39667C17.2142 8.29708 16.4842 7.12827 15.8138 6.4578C15.1493 5.79327 13.992 5.06676 12.9043 4.94142C12.5278 4.89763 12.1881 5.16796 12.1447 5.54406C12.1015 5.92025 12.3714 6.26042 12.7476 6.30376Z" fill="white"/>
</svg>
